<svg xmlns="http://www.w3.org/2000/svg" xmlns:xlink="http://www.w3.org/1999/xlink" width="48" zoomAndPan="magnify" viewBox="0 0 36 36.000001" height="48" preserveAspectRatio="xMidYMid meet" version="1.2"><defs><clipPath id="378ee2c818"><path d="M 22 0 L 31.136719 0 L 31.136719 9 L 22 9 Z M 22 0 "/></clipPath><clipPath id="439d5295b4"><path d="M 4.863281 0 L 31.136719 0 L 31.136719 35.027344 L 4.863281 35.027344 Z M 4.863281 0 "/></clipPath></defs><g id="b06acc237b"><g clip-rule="nonzero" clip-path="url(#378ee2c818)"><path style=" stroke:none;fill-rule:nonzero;fill:#757575;fill-opacity:1;" d="M 22.378906 8.757812 L 31.136719 8.757812 L 22.378906 0 Z M 22.378906 8.757812 "/></g><g clip-rule="nonzero" clip-path="url(#439d5295b4)"><path style=" stroke:none;fill-rule:nonzero;fill:#757575;fill-opacity:1;" d="M 22.378906 11.675781 C 20.765625 11.675781 19.460938 10.367188 19.460938 8.757812 L 19.460938 0 L 7.785156 0 C 6.171875 0 4.863281 1.304688 4.863281 2.917969 L 4.863281 32.109375 C 4.863281 33.71875 6.171875 35.027344 7.785156 35.027344 L 28.214844 35.027344 C 29.828125 35.027344 31.136719 33.722656 31.136719 32.109375 L 31.136719 11.675781 Z M 9.242188 4.378906 L 15.082031 4.378906 L 15.082031 10.214844 L 9.242188 10.214844 Z M 9.242188 16.054688 L 23.835938 16.054688 L 23.835938 18.972656 L 9.242188 18.972656 Z M 20.917969 30.648438 L 9.242188 30.648438 L 9.242188 27.730469 L 20.917969 27.730469 Z M 26.757812 24.8125 L 9.242188 24.8125 L 9.242188 21.890625 L 26.757812 21.890625 Z M 26.757812 24.8125 "/></g></g></svg>