<svg xmlns="http://www.w3.org/2000/svg" xmlns:xlink="http://www.w3.org/1999/xlink" width="48" zoomAndPan="magnify" viewBox="0 0 36 36.000001" height="48" preserveAspectRatio="xMidYMid meet" version="1.2"><defs><clipPath id="cbf114ca37"><path d="M 0.488281 0.214844 L 35.511719 0.214844 L 35.511719 35.027344 L 0.488281 35.027344 Z M 0.488281 0.214844 "/></clipPath></defs><g id="20f9f44821"><g clip-rule="nonzero" clip-path="url(#cbf114ca37)"><path style=" stroke:none;fill-rule:nonzero;fill:#757575;fill-opacity:1;" d="M 6.664062 0.214844 L 29.097656 0.214844 C 30.808594 0.214844 32.359375 0.90625 33.480469 2.027344 C 34.605469 3.152344 35.296875 4.699219 35.296875 6.394531 L 35.296875 28.824219 C 35.296875 30.539062 34.605469 32.089844 33.480469 33.210938 C 32.359375 34.332031 30.808594 35.023438 29.097656 35.023438 L 6.664062 35.023438 C 4.972656 35.023438 3.421875 34.332031 2.300781 33.210938 C 1.179688 32.089844 0.488281 30.539062 0.488281 28.824219 L 0.488281 6.394531 C 0.488281 4.699219 1.179688 3.152344 2.300781 2.027344 C 3.421875 0.90625 4.972656 0.214844 6.664062 0.214844 Z M 29.097656 2.027344 L 6.664062 2.027344 C 5.460938 2.027344 4.382812 2.519531 3.585938 3.3125 C 2.789062 4.109375 2.300781 5.191406 2.300781 6.394531 L 2.300781 28.824219 C 2.300781 30.027344 2.789062 31.128906 3.585938 31.925781 C 4.382812 32.699219 5.460938 33.210938 6.664062 33.210938 L 29.097656 33.210938 C 30.300781 33.210938 31.402344 32.699219 32.195312 31.925781 C 32.972656 31.128906 33.480469 30.027344 33.480469 28.824219 L 33.480469 6.394531 C 33.480469 5.191406 32.972656 4.109375 32.195312 3.3125 C 31.402344 2.519531 30.300781 2.027344 29.097656 2.027344 Z M 29.097656 2.027344 "/></g><path style=" stroke:none;fill-rule:nonzero;fill:#757575;fill-opacity:1;" d="M 6.847656 12.285156 L 10.214844 12.285156 C 10.601562 12.285156 10.949219 12.429688 11.191406 12.675781 C 11.457031 12.917969 11.640625 13.265625 11.640625 13.671875 L 11.640625 29.273438 C 11.640625 29.660156 11.457031 30.027344 11.191406 30.273438 C 10.949219 30.519531 10.601562 30.660156 10.214844 30.660156 L 6.847656 30.660156 C 6.460938 30.660156 6.113281 30.519531 5.871094 30.273438 C 5.585938 30.027344 5.421875 29.660156 5.421875 29.273438 L 5.421875 13.671875 C 5.421875 13.265625 5.585938 12.917969 5.871094 12.675781 C 6.113281 12.429688 6.460938 12.285156 6.847656 12.285156 Z M 9.828125 14.101562 L 7.238281 14.101562 L 7.238281 28.84375 L 9.828125 28.84375 Z M 9.828125 14.101562 "/><path style=" stroke:none;fill-rule:nonzero;fill:#757575;fill-opacity:1;" d="M 15.351562 12.246094 L 18.71875 12.246094 C 19.105469 12.246094 19.453125 12.410156 19.695312 12.632812 C 19.980469 12.898438 20.144531 13.246094 20.144531 13.632812 L 20.144531 13.753906 C 20.878906 13.265625 21.714844 12.898438 22.570312 12.695312 C 23.753906 12.410156 25 12.386719 26.140625 12.652344 C 27.304688 12.9375 28.382812 13.550781 29.136719 14.507812 C 29.894531 15.425781 30.339844 16.671875 30.339844 18.222656 L 30.339844 29.234375 C 30.339844 29.621094 30.179688 29.96875 29.914062 30.230469 C 29.667969 30.457031 29.320312 30.621094 28.933594 30.621094 L 25.550781 30.621094 C 25.183594 30.621094 24.835938 30.457031 24.570312 30.230469 C 24.304688 29.96875 24.140625 29.621094 24.140625 29.234375 L 24.140625 20.523438 C 24.140625 19.710938 23.671875 19.199219 23.082031 18.976562 C 22.816406 18.875 22.511719 18.832031 22.226562 18.832031 C 21.917969 18.832031 21.613281 18.894531 21.328125 18.996094 C 20.65625 19.242188 20.144531 19.75 20.144531 20.523438 L 20.144531 29.273438 C 20.144531 29.660156 19.980469 30.027344 19.695312 30.273438 C 19.453125 30.519531 19.105469 30.660156 18.71875 30.660156 L 15.351562 30.660156 C 14.964844 30.660156 14.617188 30.519531 14.375 30.273438 C 14.109375 30.027344 13.925781 29.660156 13.925781 29.273438 L 13.925781 13.632812 C 13.925781 13.246094 14.109375 12.898438 14.375 12.632812 C 14.617188 12.410156 14.964844 12.246094 15.351562 12.246094 Z M 18.332031 14.0625 L 15.742188 14.0625 L 15.742188 28.84375 L 18.332031 28.84375 L 18.332031 20.523438 C 18.332031 18.875 19.371094 17.773438 20.714844 17.28125 C 21.183594 17.121094 21.695312 17.039062 22.203125 17.019531 C 22.714844 17.019531 23.222656 17.097656 23.714844 17.28125 C 24.976562 17.75 25.957031 18.8125 25.957031 20.523438 L 25.957031 28.804688 L 28.527344 28.804688 L 28.527344 18.222656 C 28.527344 17.121094 28.21875 16.261719 27.730469 15.652344 C 27.222656 15.019531 26.507812 14.613281 25.710938 14.40625 C 24.855469 14.203125 23.917969 14.222656 23.019531 14.449219 C 21.796875 14.753906 20.695312 15.40625 19.980469 16.386719 C 19.820312 16.628906 19.554688 16.773438 19.226562 16.773438 C 18.738281 16.773438 18.332031 16.363281 18.332031 15.875 Z M 18.332031 14.0625 "/><path style=" stroke:none;fill-rule:nonzero;fill:#757575;fill-opacity:1;" d="M 8.519531 4.558594 C 9.4375 4.558594 10.273438 4.945312 10.867188 5.535156 C 11.457031 6.128906 11.824219 6.964844 11.824219 7.863281 C 11.824219 8.777344 11.457031 9.59375 10.867188 10.207031 C 10.273438 10.796875 9.4375 11.164062 8.519531 11.164062 C 7.625 11.164062 6.789062 10.796875 6.195312 10.207031 C 5.605469 9.59375 5.238281 8.777344 5.238281 7.863281 C 5.238281 6.964844 5.605469 6.128906 6.195312 5.535156 C 6.789062 4.945312 7.625 4.558594 8.519531 4.558594 Z M 9.582031 6.820312 C 9.316406 6.554688 8.949219 6.394531 8.519531 6.394531 C 8.113281 6.394531 7.746094 6.554688 7.480469 6.820312 C 7.214844 7.085938 7.054688 7.453125 7.054688 7.863281 C 7.054688 8.269531 7.214844 8.65625 7.480469 8.921875 C 7.746094 9.1875 8.113281 9.351562 8.519531 9.351562 C 8.949219 9.351562 9.316406 9.1875 9.582031 8.921875 C 9.847656 8.65625 10.011719 8.269531 10.011719 7.863281 C 10.011719 7.453125 9.847656 7.085938 9.582031 6.820312 Z M 9.582031 6.820312 "/></g></svg>