<svg xmlns="http://www.w3.org/2000/svg" xmlns:xlink="http://www.w3.org/1999/xlink" width="48" zoomAndPan="magnify" viewBox="0 0 36 36.000001" height="48" preserveAspectRatio="xMidYMid meet" version="1.2"><defs><clipPath id="9a91a7d3f8"><path d="M 0.488281 3.503906 L 35.511719 3.503906 L 35.511719 31.234375 L 0.488281 31.234375 Z M 0.488281 3.503906 "/></clipPath></defs><g id="00b189cd05"><g clip-rule="nonzero" clip-path="url(#9a91a7d3f8)"><path style=" stroke:none;fill-rule:nonzero;fill:#757575;fill-opacity:1;" d="M 3.957031 3.503906 C 2.046875 3.503906 0.492188 5.058594 0.492188 6.96875 L 0.492188 27.765625 C 0.492188 29.679688 2.046875 31.234375 3.957031 31.234375 L 31.6875 31.234375 C 33.597656 31.234375 35.152344 29.679688 35.152344 27.765625 L 35.152344 6.96875 C 35.152344 5.058594 33.597656 3.503906 31.6875 3.503906 Z M 3.957031 6.96875 L 31.6875 6.96875 L 31.6875 6.980469 L 17.820312 15.632812 L 3.957031 6.976562 Z M 3.957031 10.441406 L 17.820312 19.101562 L 31.6875 10.445312 L 31.691406 27.765625 L 3.957031 27.765625 Z M 3.957031 10.441406 "/></g></g></svg>