<svg xmlns="http://www.w3.org/2000/svg" xmlns:xlink="http://www.w3.org/1999/xlink" width="96" zoomAndPan="magnify" viewBox="0 0 72 72" height="96" preserveAspectRatio="xMidYMid meet" version="1.2"><defs><clipPath id="a80bad2a47"><path d="M 5 13 L 67 13 L 67 71 L 5 71 Z M 5 13 "/></clipPath><clipPath id="416b3510fa"><path d="M 58.125 3.503906 L 76.863281 46.0625 L 10.96875 75.074219 L -7.769531 32.519531 Z M 58.125 3.503906 "/></clipPath><clipPath id="34ad153458"><path d="M 76.953125 46.265625 L 58.214844 3.707031 L -7.679688 32.722656 L 11.058594 75.28125 Z M 76.953125 46.265625 "/></clipPath></defs><g id="17782de6aa"><g clip-rule="nonzero" clip-path="url(#a80bad2a47)"><g clip-rule="nonzero" clip-path="url(#416b3510fa)"><g clip-rule="nonzero" clip-path="url(#34ad153458)"><path style=" stroke:none;fill-rule:nonzero;fill:#ffffff;fill-opacity:1;" d="M 62.640625 23.785156 C 62.671875 23.859375 62.695312 23.917969 62.730469 23.988281 C 62.742188 24.019531 62.761719 24.0625 62.773438 24.089844 C 62.785156 24.121094 62.800781 24.148438 62.816406 24.191406 C 62.84375 24.25 62.855469 24.3125 62.894531 24.367188 C 62.921875 24.421875 62.9375 24.46875 62.980469 24.519531 C 62.925781 24.195312 62.824219 23.964844 62.640625 23.785156 Z M 62.640625 23.785156 Z M 17.765625 39.777344 C 17.761719 39.765625 17.777344 39.757812 17.769531 39.742188 C 17.777344 39.757812 17.765625 39.777344 17.765625 39.777344 Z M 30.816406 15.894531 C 32.308594 15.359375 33.808594 14.921875 35.074219 14.621094 C 35.390625 14.554688 35.699219 14.46875 35.984375 14.414062 C 36.269531 14.355469 36.535156 14.289062 36.773438 14.238281 C 37.265625 14.140625 37.660156 14.054688 37.945312 14 C 38.25 13.984375 38.582031 13.960938 38.925781 13.910156 C 39.089844 13.890625 39.273438 13.878906 39.4375 13.859375 C 39.523438 13.855469 39.601562 13.839844 39.703125 13.828125 L 39.964844 13.800781 C 40.65625 13.71875 41.347656 13.640625 41.953125 13.648438 L 41.820312 13.621094 C 41.992188 13.617188 42.242188 13.59375 42.582031 13.582031 C 42.75 13.574219 42.9375 13.5625 43.121094 13.550781 C 43.320312 13.53125 43.523438 13.527344 43.757812 13.511719 C 44.660156 13.476562 45.75 13.445312 46.867188 13.472656 C 47.972656 13.503906 49.085938 13.566406 50.015625 13.675781 C 50.128906 13.695312 50.25 13.695312 50.363281 13.714844 C 50.472656 13.734375 50.578125 13.738281 50.691406 13.757812 C 50.894531 13.789062 51.09375 13.804688 51.261719 13.835938 C 51.429688 13.867188 51.597656 13.894531 51.726562 13.910156 C 51.859375 13.9375 51.984375 13.949219 52.082031 13.976562 L 51.871094 13.964844 C 52.527344 14.125 52.804688 14.160156 53.066406 14.164062 C 53.191406 14.179688 53.3125 14.175781 53.46875 14.175781 C 53.539062 14.179688 53.628906 14.191406 53.734375 14.199219 C 53.792969 14.207031 53.84375 14.203125 53.898438 14.210938 C 53.953125 14.222656 54.011719 14.230469 54.082031 14.234375 C 53.992188 14.308594 54.234375 14.425781 54.527344 14.539062 C 54.671875 14.597656 54.851562 14.65625 55.003906 14.726562 C 55.089844 14.757812 55.164062 14.777344 55.226562 14.800781 C 55.289062 14.824219 55.367188 14.84375 55.410156 14.859375 L 55.410156 14.824219 C 55.570312 14.875 55.773438 14.941406 56.003906 15.03125 C 56.128906 15.078125 56.253906 15.128906 56.378906 15.175781 C 56.441406 15.199219 56.503906 15.226562 56.582031 15.242188 C 56.644531 15.265625 56.710938 15.304688 56.789062 15.324219 C 56.933594 15.378906 57.066406 15.445312 57.207031 15.484375 C 57.351562 15.542969 57.484375 15.605469 57.628906 15.664062 C 57.90625 15.78125 58.183594 15.902344 58.433594 16 L 58.425781 15.898438 C 58.472656 15.929688 58.535156 15.953125 58.582031 15.984375 C 58.644531 16.007812 58.695312 16.039062 58.757812 16.066406 C 58.882812 16.113281 59.011719 16.175781 59.144531 16.238281 C 59.207031 16.261719 59.273438 16.300781 59.359375 16.335938 C 59.425781 16.375 59.503906 16.390625 59.574219 16.429688 C 59.726562 16.5 59.871094 16.558594 60.007812 16.636719 C 60.597656 16.910156 61.136719 17.191406 61.4375 17.371094 C 61.785156 17.566406 62.175781 17.789062 62.585938 18.058594 C 63 18.324219 63.429688 18.636719 63.867188 18.996094 C 64.285156 19.363281 64.710938 19.78125 65.085938 20.273438 C 65.449219 20.753906 65.777344 21.300781 66.019531 21.851562 C 66.316406 22.289062 66.582031 22.777344 66.796875 23.304688 L 66.820312 23.550781 C 66.820312 23.550781 66.804688 23.558594 66.785156 23.585938 C 66.761719 23.613281 66.738281 23.640625 66.703125 23.675781 C 66.632812 23.753906 66.507812 23.863281 66.367188 23.976562 C 66.300781 24.023438 66.226562 24.089844 66.132812 24.148438 C 66.054688 24.203125 65.957031 24.261719 65.863281 24.320312 C 65.667969 24.421875 65.464844 24.511719 65.25 24.574219 C 65.035156 24.632812 64.804688 24.664062 64.585938 24.675781 C 64.480469 24.667969 64.359375 24.671875 64.269531 24.660156 C 64.210938 24.648438 64.15625 24.640625 64.113281 24.625 C 64.058594 24.613281 64.015625 24.597656 63.960938 24.585938 C 63.765625 24.535156 63.570312 24.449219 63.40625 24.347656 C 63.355469 24.316406 63.328125 24.296875 63.28125 24.265625 C 63.234375 24.234375 63.199219 24.195312 63.167969 24.160156 C 63.097656 24.085938 63.019531 24.019531 62.945312 23.929688 L 62.863281 23.980469 C 62.859375 23.933594 62.832031 23.875 62.816406 23.832031 C 62.808594 23.78125 62.785156 23.722656 62.765625 23.679688 C 62.726562 23.59375 62.679688 23.527344 62.664062 23.449219 C 62.632812 23.375 62.613281 23.332031 62.59375 23.289062 C 62.574219 23.246094 62.5625 23.214844 62.554688 23.203125 C 62.550781 23.1875 62.527344 23.179688 62.519531 23.199219 L 62.558594 23.253906 L 62.585938 23.308594 L 62.65625 23.433594 L 62.707031 23.550781 C 62.714844 23.5625 62.726562 23.59375 62.734375 23.605469 L 62.757812 23.664062 C 62.722656 23.578125 62.679688 23.527344 62.675781 23.511719 C 62.648438 23.488281 62.648438 23.488281 62.644531 23.523438 C 62.636719 23.546875 62.648438 23.574219 62.65625 23.625 C 62.652344 23.660156 62.65625 23.710938 62.65625 23.746094 C 62.644531 23.714844 62.625 23.671875 62.613281 23.644531 C 62.597656 23.613281 62.578125 23.570312 62.550781 23.550781 C 62.546875 23.535156 62.539062 23.519531 62.535156 23.503906 C 62.527344 23.492188 62.519531 23.476562 62.5 23.46875 C 62.488281 23.441406 62.460938 23.417969 62.445312 23.386719 C 62.445312 23.304688 62.507812 23.414062 62.550781 23.464844 C 62.53125 23.421875 62.519531 23.355469 62.492188 23.296875 C 62.46875 23.242188 62.457031 23.175781 62.425781 23.105469 C 62.398438 23.046875 62.367188 22.972656 62.328125 22.921875 C 62.28125 22.855469 62.242188 22.804688 62.203125 22.753906 C 62.128906 22.664062 62.09375 22.628906 62.054688 22.609375 C 62.027344 22.589844 61.996094 22.601562 61.984375 22.609375 C 61.96875 22.613281 61.933594 22.613281 61.90625 22.589844 C 61.863281 22.574219 61.824219 22.523438 61.730469 22.425781 C 61.265625 21.921875 60.664062 21.460938 60.003906 21.058594 C 59.34375 20.660156 58.632812 20.300781 57.878906 19.992188 L 57.730469 19.9375 C 57.6875 19.921875 57.625 19.894531 57.585938 19.878906 L 57.292969 19.765625 L 57.148438 19.710938 L 57 19.652344 L 56.695312 19.546875 C 56.292969 19.414062 55.882812 19.265625 55.46875 19.152344 C 54.644531 18.894531 53.808594 18.675781 52.945312 18.484375 C 52.851562 18.507812 52.945312 18.519531 53.046875 18.558594 C 52.929688 18.527344 52.796875 18.5 52.664062 18.472656 C 52.53125 18.441406 52.410156 18.410156 52.292969 18.375 C 52.160156 18.347656 52.046875 18.328125 51.929688 18.292969 C 51.808594 18.257812 51.683594 18.246094 51.570312 18.226562 C 51.324219 18.179688 51.085938 18.144531 50.855469 18.09375 C 50.742188 18.074219 50.617188 18.058594 50.496094 18.023438 C 50.386719 18.003906 50.257812 17.992188 50.140625 17.957031 C 50.003906 17.964844 49.917969 17.96875 49.839844 17.984375 C 49.777344 17.996094 49.734375 18.015625 49.691406 18.035156 C 49.703125 18.027344 49.640625 18.003906 49.515625 17.992188 C 49.382812 17.964844 49.179688 17.933594 48.929688 17.921875 C 48.4375 17.859375 47.753906 17.796875 47.070312 17.773438 C 46.894531 17.761719 46.714844 17.753906 46.558594 17.753906 C 46.382812 17.746094 46.226562 17.746094 46.050781 17.738281 C 45.726562 17.742188 45.40625 17.726562 45.152344 17.734375 C 45.019531 17.742188 44.898438 17.742188 44.792969 17.738281 C 44.683594 17.734375 44.585938 17.742188 44.5 17.746094 C 44.34375 17.746094 44.246094 17.753906 44.230469 17.761719 L 44.160156 17.601562 C 43.089844 17.640625 43.855469 17.804688 42.875 17.820312 C 42.78125 17.761719 42.625 17.761719 42.449219 17.75 C 42.363281 17.753906 42.261719 17.765625 42.164062 17.773438 C 42.0625 17.78125 41.964844 17.792969 41.871094 17.816406 C 41.769531 17.824219 41.679688 17.847656 41.578125 17.859375 C 41.480469 17.867188 41.386719 17.890625 41.300781 17.894531 C 41.136719 17.914062 40.988281 17.929688 40.90625 17.894531 C 40.910156 17.910156 40.441406 17.980469 40.472656 18.050781 C 40.300781 17.9375 39.96875 18.082031 39.664062 18.097656 C 39.550781 18.078125 39.742188 18.042969 39.808594 17.996094 C 39.574219 18.015625 39.339844 18.03125 39.105469 18.046875 C 38.96875 18.089844 38.898438 18.121094 38.878906 18.164062 C 38.871094 18.183594 38.933594 18.210938 39.078125 18.179688 C 38.964844 18.195312 38.820312 18.226562 38.664062 18.261719 C 38.507812 18.292969 38.3125 18.328125 38.105469 18.367188 C 37.898438 18.40625 37.675781 18.453125 37.441406 18.503906 C 37.203125 18.558594 36.933594 18.605469 36.667969 18.671875 C 35.585938 18.921875 34.316406 19.257812 33.078125 19.664062 C 32.46875 19.882812 31.855469 20.101562 31.300781 20.328125 C 31.152344 20.390625 31.023438 20.449219 30.871094 20.5 C 30.742188 20.554688 30.597656 20.621094 30.46875 20.675781 C 30.207031 20.792969 29.953125 20.921875 29.714844 21.042969 C 28.761719 21.515625 28.046875 21.96875 27.652344 22.210938 C 27.730469 22.105469 27.882812 21.988281 28.042969 21.882812 C 28.082031 21.847656 28.125 21.828125 28.160156 21.796875 C 28.199219 21.761719 28.242188 21.742188 28.28125 21.710938 C 28.339844 21.648438 28.398438 21.585938 28.421875 21.523438 C 28.308594 21.578125 28.207031 21.621094 28.117188 21.660156 C 28.039062 21.710938 27.972656 21.757812 27.921875 21.796875 C 27.804688 21.882812 27.707031 21.945312 27.601562 21.972656 C 27.597656 22.042969 27.53125 22.125 27.441406 22.199219 C 27.359375 22.289062 27.257812 22.367188 27.136719 22.453125 C 27.085938 22.492188 27.019531 22.539062 26.96875 22.578125 C 26.917969 22.621094 26.859375 22.679688 26.808594 22.71875 C 26.710938 22.816406 26.632812 22.917969 26.59375 23.023438 L 26.410156 23 C 26.371094 23.066406 26.320312 23.144531 26.28125 23.210938 C 26.175781 23.292969 26.082031 23.351562 25.992188 23.425781 C 25.917969 23.492188 25.839844 23.542969 25.773438 23.589844 C 25.707031 23.636719 25.65625 23.675781 25.605469 23.714844 C 25.554688 23.757812 25.515625 23.789062 25.492188 23.816406 C 25.351562 23.929688 25.316406 23.964844 25.292969 23.992188 C 25.257812 24.023438 25.234375 24.050781 25.144531 24.160156 C 25.097656 24.214844 25.023438 24.28125 24.933594 24.390625 C 24.84375 24.5 24.722656 24.621094 24.558594 24.796875 C 24.464844 24.890625 24.382812 24.980469 24.300781 25.070312 C 24.21875 25.15625 24.136719 25.246094 24.0625 25.3125 C 23.90625 25.46875 23.769531 25.59375 23.652344 25.714844 C 23.414062 25.960938 23.226562 26.164062 23.078125 26.417969 C 23.125 26.328125 23.171875 26.152344 22.996094 26.351562 C 23.023438 26.40625 22.894531 26.550781 22.773438 26.707031 C 22.707031 26.789062 22.640625 26.871094 22.585938 26.945312 C 22.53125 27.019531 22.507812 27.082031 22.511719 27.132812 C 22.332031 27.351562 21.875 28.15625 21.914062 27.8125 C 21.902344 27.902344 21.808594 28.117188 21.742188 28.285156 C 21.691406 28.445312 21.660156 28.527344 21.8125 28.324219 C 21.746094 28.457031 21.679688 28.570312 21.625 28.683594 C 21.570312 28.792969 21.511719 28.902344 21.445312 28.984375 C 21.484375 28.882812 21.535156 28.757812 21.574219 28.652344 C 21.515625 28.75 21.460938 28.859375 21.414062 28.949219 C 21.367188 29.039062 21.320312 29.128906 21.273438 29.21875 C 21.191406 29.390625 21.121094 29.542969 21.050781 29.695312 C 20.980469 29.847656 20.914062 29.980469 20.851562 30.109375 C 20.789062 30.242188 20.707031 30.363281 20.605469 30.496094 L 20.695312 30.144531 C 20.632812 30.277344 20.582031 30.402344 20.527344 30.511719 C 20.480469 30.636719 20.441406 30.742188 20.398438 30.84375 C 20.359375 30.949219 20.332031 31.046875 20.320312 31.140625 C 20.308594 31.230469 20.304688 31.300781 20.316406 31.367188 C 20.410156 31.1875 20.488281 31.011719 20.582031 30.832031 C 20.394531 31.261719 20.253906 31.617188 20.109375 31.957031 C 20.046875 32.125 19.980469 32.289062 19.894531 32.449219 C 19.832031 32.617188 19.75 32.789062 19.65625 32.96875 L 19.75 32.703125 C 19.722656 32.765625 19.6875 32.835938 19.640625 32.925781 C 19.59375 33.015625 19.550781 33.117188 19.511719 33.222656 C 19.421875 33.453125 19.316406 33.722656 19.195312 34.035156 C 18.964844 34.65625 18.738281 35.429688 18.523438 36.199219 C 18.496094 36.296875 18.472656 36.394531 18.445312 36.492188 C 18.417969 36.589844 18.394531 36.6875 18.367188 36.785156 C 18.339844 36.882812 18.316406 36.980469 18.289062 37.078125 C 18.261719 37.175781 18.25 37.269531 18.226562 37.367188 C 18.1875 37.554688 18.128906 37.734375 18.085938 37.910156 C 18.042969 38.085938 18.011719 38.253906 17.96875 38.429688 C 17.933594 38.582031 17.894531 38.738281 17.859375 38.890625 C 17.832031 39.023438 17.804688 39.15625 17.777344 39.289062 C 17.722656 39.519531 17.671875 39.71875 17.636719 39.835938 C 17.625 39.6875 17.609375 39.535156 17.574219 39.378906 L 17.378906 40.191406 C 17.40625 40.09375 17.734375 39.898438 17.773438 39.792969 C 17.75 40.011719 17.703125 40.339844 17.65625 40.742188 C 17.613281 41.160156 17.5625 41.664062 17.519531 42.238281 C 17.433594 43.378906 17.398438 44.746094 17.429688 46.113281 C 17.460938 47.480469 17.558594 48.835938 17.703125 49.949219 C 17.773438 50.503906 17.839844 51.011719 17.914062 51.410156 C 17.953125 51.617188 17.980469 51.796875 18.015625 51.953125 C 18.050781 52.109375 18.070312 52.238281 18.09375 52.332031 C 18.277344 52.976562 18.304688 52.414062 18.316406 52.40625 C 18.371094 52.796875 18.359375 52.890625 18.339844 52.96875 C 18.335938 53.039062 18.328125 53.09375 18.386719 53.429688 C 18.449219 53.609375 18.46875 53.375 18.472656 53.269531 C 18.503906 53.414062 18.53125 53.558594 18.5625 53.664062 C 18.589844 53.773438 18.601562 53.835938 18.578125 53.863281 C 18.515625 53.683594 18.460938 53.636719 18.40625 53.628906 C 18.351562 53.617188 18.285156 53.628906 18.21875 53.554688 C 18.246094 53.699219 18.277344 53.839844 18.320312 53.976562 L 18.417969 54.402344 L 18.5 54.347656 C 18.523438 54.441406 18.480469 54.582031 18.484375 54.785156 C 18.480469 54.890625 18.488281 55.027344 18.5 55.175781 C 18.515625 55.324219 18.5625 55.511719 18.628906 55.707031 C 19.042969 57.113281 19.507812 58.636719 20.054688 60.003906 C 20.09375 59.96875 20.023438 59.652344 19.945312 59.359375 C 20.023438 59.535156 20.101562 59.828125 20.207031 59.988281 C 19.984375 59.6875 20.382812 60.585938 20.238281 60.335938 C 20.289062 60.609375 20.359375 60.886719 20.464844 61.167969 C 20.574219 61.449219 20.679688 61.730469 20.816406 62 C 20.910156 62.21875 21.027344 62.441406 21.117188 62.644531 C 21.132812 62.570312 21.167969 62.484375 21.183594 62.410156 C 21.265625 62.164062 21.347656 61.921875 21.429688 61.710938 C 21.472656 61.609375 21.503906 61.523438 21.535156 61.441406 C 21.574219 61.371094 21.597656 61.308594 21.628906 61.261719 C 21.703125 61.351562 21.601562 61.429688 21.707031 61.519531 C 21.824219 61.46875 21.746094 61.367188 21.835938 61.378906 C 21.644531 61.253906 21.875 61.152344 21.699219 60.988281 L 21.832031 61.015625 L 21.78125 60.9375 C 21.929688 60.765625 21.953125 60.738281 21.960938 60.71875 C 21.96875 60.699219 21.941406 60.675781 22.019531 60.503906 C 22.128906 60.316406 22.34375 60.292969 22.335938 60.15625 C 22.339844 60.171875 22.386719 60.238281 22.425781 60.203125 C 22.328125 60.140625 22.570312 60.105469 22.46875 60.027344 C 22.5 59.980469 22.578125 59.808594 22.6875 59.933594 C 22.660156 59.910156 22.648438 59.847656 22.648438 59.8125 C 22.644531 59.761719 22.625 59.753906 22.582031 59.773438 C 22.609375 59.722656 22.601562 59.660156 22.65625 59.632812 L 22.660156 59.71875 C 22.765625 59.570312 22.703125 59.425781 22.890625 59.375 L 22.914062 59.46875 C 22.976562 59.375 23.027344 59.296875 22.914062 59.195312 L 22.808594 59.273438 C 22.894531 59.113281 22.957031 59.019531 23.101562 58.921875 L 23.074219 58.96875 C 23.101562 58.957031 23.136719 58.921875 23.183594 58.902344 C 23.21875 58.867188 23.269531 58.828125 23.316406 58.773438 C 23.414062 58.679688 23.515625 58.566406 23.628906 58.464844 C 23.734375 58.347656 23.84375 58.25 23.941406 58.152344 C 24.042969 58.074219 24.140625 58.015625 24.195312 57.988281 L 24.253906 58.121094 L 24.425781 58.042969 C 24.417969 58.0625 24.121094 57.9375 24.085938 57.933594 C 24.140625 57.859375 24.222656 57.734375 24.351562 57.558594 C 24.414062 57.460938 24.480469 57.378906 24.542969 57.285156 C 24.617188 57.183594 24.695312 57.078125 24.769531 56.976562 C 24.921875 56.773438 25.074219 56.566406 25.1875 56.394531 C 25.300781 56.222656 25.402344 56.09375 25.433594 56.011719 C 25.460938 55.878906 25.289062 55.882812 25.285156 55.871094 C 25.417969 55.777344 25.417969 55.898438 25.488281 55.78125 C 25.488281 55.746094 25.410156 55.726562 25.382812 55.738281 C 25.433594 55.699219 25.421875 55.636719 25.472656 55.667969 C 25.460938 55.757812 25.605469 55.8125 25.660156 55.894531 L 25.75 55.75 L 25.675781 55.699219 C 25.699219 55.671875 25.933594 55.773438 25.984375 55.613281 C 26.121094 55.378906 26.324219 55.167969 26.484375 54.945312 C 26.433594 54.914062 26.378906 54.9375 26.320312 54.964844 C 26.34375 54.9375 26.378906 54.902344 26.375 54.855469 C 26.40625 54.960938 26.492188 54.804688 26.5 54.867188 C 26.652344 54.851562 26.726562 54.785156 26.808594 54.699219 C 26.875 54.617188 26.9375 54.519531 27.050781 54.503906 C 27.132812 54.570312 27.851562 55.066406 28.5625 55.582031 C 29.273438 56.101562 29.96875 56.621094 30.070312 56.699219 C 30.101562 56.648438 30.125 56.621094 30.113281 56.59375 C 30.152344 56.644531 30.105469 56.734375 30.054688 56.738281 L 29.953125 56.664062 C 29.835938 56.714844 30 56.730469 29.917969 56.816406 C 29.984375 56.890625 30.078125 56.832031 30.140625 56.773438 C 30.101562 56.839844 30.09375 56.945312 29.992188 56.90625 C 29.980469 57 30.09375 56.984375 30.066406 57.082031 C 30.007812 57.105469 29.867188 57.097656 29.863281 57.203125 L 29.882812 57.214844 C 29.851562 57.417969 29.582031 57.3125 29.566406 57.507812 L 29.601562 57.511719 C 29.617188 57.589844 29.480469 57.632812 29.460938 57.746094 C 29.464844 57.710938 29.417969 57.644531 29.367188 57.683594 C 29.335938 57.816406 29.246094 57.839844 29.246094 57.960938 L 29.109375 57.96875 C 29.101562 57.988281 29.078125 58.015625 29.058594 58.042969 C 29.035156 58.070312 29.011719 58.097656 28.996094 58.140625 C 28.941406 58.214844 28.882812 58.277344 28.808594 58.378906 C 28.671875 58.542969 28.5 58.738281 28.332031 58.949219 C 28.257812 59.050781 28.167969 59.160156 28.085938 59.25 C 28.007812 59.351562 27.925781 59.4375 27.867188 59.535156 C 27.738281 59.714844 27.628906 59.863281 27.5625 59.945312 L 27.578125 59.9375 C 27.539062 60.007812 27.480469 60.070312 27.417969 60.164062 C 27.363281 60.238281 27.304688 60.335938 27.242188 60.433594 C 27.179688 60.527344 27.117188 60.625 27.058594 60.71875 C 26.996094 60.816406 26.921875 60.917969 26.867188 61.03125 C 26.734375 61.242188 26.605469 61.457031 26.480469 61.648438 C 26.449219 61.695312 26.417969 61.742188 26.390625 61.792969 C 26.359375 61.839844 26.328125 61.886719 26.3125 61.929688 C 26.265625 62.019531 26.195312 62.101562 26.152344 62.15625 C 26.195312 62.292969 26.109375 62.414062 26.089844 62.527344 C 26.082031 62.464844 26.003906 62.445312 25.988281 62.488281 C 25.867188 62.800781 25.917969 62.484375 25.746094 62.765625 C 25.695312 62.839844 25.609375 63 25.527344 63.171875 C 25.480469 63.261719 25.457031 63.359375 25.414062 63.464844 C 25.375 63.570312 25.335938 63.671875 25.300781 63.792969 C 25.261719 63.894531 25.226562 64.015625 25.199219 64.113281 C 25.171875 64.210938 25.152344 64.324219 25.128906 64.421875 C 25.089844 64.609375 25.054688 64.765625 25.042969 64.855469 C 24.992188 64.894531 24.953125 64.929688 24.921875 64.976562 C 24.894531 65.023438 24.875 65.066406 24.867188 65.121094 C 24.839844 65.21875 24.816406 65.320312 24.742188 65.386719 L 24.777344 65.386719 C 24.746094 65.433594 24.71875 65.535156 24.683594 65.652344 C 24.660156 65.714844 24.644531 65.792969 24.625 65.867188 C 24.605469 65.945312 24.589844 66.023438 24.570312 66.097656 C 24.535156 66.253906 24.507812 66.421875 24.476562 66.554688 C 24.453125 66.617188 24.449219 66.6875 24.433594 66.730469 C 24.425781 66.785156 24.410156 66.828125 24.398438 66.847656 L 24.386719 66.820312 C 24.253906 66.984375 24.414062 66.996094 24.433594 67.160156 C 24.273438 67.113281 24.148438 67.253906 24.117188 67.300781 L 24.152344 67.304688 C 24.105469 67.394531 23.910156 67.582031 23.855469 67.726562 L 23.945312 67.738281 C 23.871094 67.808594 23.847656 67.90625 23.828125 68.015625 C 23.855469 68.039062 23.867188 68.070312 23.878906 68.097656 C 23.917969 68.148438 23.945312 68.207031 23.96875 68.265625 L 24.160156 68.300781 L 24.355469 68.355469 L 24.359375 68.402344 C 24.359375 68.402344 24.21875 68.554688 23.996094 68.753906 C 23.921875 68.820312 23.847656 68.890625 23.757812 68.960938 C 23.742188 69.003906 23.734375 69.023438 23.71875 69.066406 L 23.957031 69.289062 L 23.933594 69.316406 C 23.933594 69.316406 23.742188 69.316406 23.421875 69.300781 C 23.421875 69.300781 23.402344 69.292969 23.402344 69.292969 C 23.3125 69.367188 23.226562 69.4375 23.121094 69.519531 C 22.777344 69.792969 22.410156 70.058594 22.066406 70.261719 C 21.722656 70.460938 21.425781 70.609375 21.242188 70.625 L 21.167969 70.691406 C 21.15625 70.660156 21.148438 70.648438 21.136719 70.617188 C 21.046875 70.570312 21.085938 70.46875 21.027344 70.527344 L 21.121094 70.625 C 21.039062 70.554688 21.042969 70.640625 21.019531 70.703125 C 20.992188 70.683594 20.957031 70.644531 20.910156 70.648438 C 20.925781 70.609375 20.953125 70.628906 20.972656 70.636719 C 20.960938 70.574219 20.980469 70.460938 20.917969 70.4375 C 20.851562 70.363281 20.800781 70.523438 20.714844 70.441406 C 20.484375 70.230469 20.25 70.058594 19.996094 69.875 C 19.75 69.707031 19.496094 69.527344 19.238281 69.328125 C 19.195312 69.347656 19.214844 69.355469 19.230469 69.386719 C 19.09375 69.238281 18.941406 69.164062 18.8125 69.03125 C 18.75 69.042969 18.710938 69.078125 18.675781 69.109375 C 18.710938 69.078125 18.515625 68.9375 18.292969 68.792969 C 18.246094 68.761719 18.179688 68.726562 18.128906 68.695312 C 18.082031 68.664062 18.019531 68.640625 17.972656 68.609375 C 17.882812 68.5625 17.820312 68.539062 17.820312 68.539062 L 17.890625 68.386719 C 17.710938 68.292969 17.75 68.535156 17.605469 68.40625 C 17.617188 68.28125 17.554688 68.253906 17.464844 68.242188 C 17.386719 68.226562 17.304688 68.230469 17.285156 68.148438 C 17.277344 68.171875 17.195312 68.136719 17.167969 68.199219 C 17.199219 68.066406 17.089844 68.132812 17.046875 68.082031 C 17.042969 68.03125 17.070312 68.054688 17.109375 68.019531 L 17 67.929688 C 16.933594 67.941406 16.894531 68.011719 16.945312 68.042969 C 16.761719 67.984375 16.261719 67.824219 15.730469 67.640625 C 15.210938 67.476562 14.660156 67.285156 14.480469 67.191406 C 14.566406 67.117188 14.667969 67.230469 14.765625 67.097656 C 14.695312 66.976562 14.597656 67.070312 14.589844 66.96875 C 14.472656 67.175781 14.335938 66.945312 14.179688 67.132812 L 14.140625 67.011719 L 14.0625 67.066406 C 13.636719 66.769531 13.980469 66.960938 13.546875 66.839844 C 13.3125 66.738281 13.257812 66.539062 13.089844 66.542969 C 13.117188 66.53125 13.183594 66.484375 13.128906 66.4375 C 13.089844 66.542969 12.988281 66.3125 12.917969 66.394531 C 12.851562 66.355469 12.652344 66.300781 12.773438 66.179688 C 12.714844 66.242188 12.523438 66.203125 12.605469 66.308594 C 12.542969 66.28125 12.476562 66.292969 12.4375 66.242188 L 12.539062 66.234375 C 12.335938 66.132812 12.183594 66.214844 12.085938 66.035156 L 12.179688 66.011719 C 12.054688 65.960938 11.957031 65.898438 11.859375 66.03125 L 11.96875 66.121094 C 11.761719 66.039062 11.636719 65.992188 11.488281 65.847656 L 11.550781 65.875 C 11.464844 65.753906 11.140625 65.570312 10.808594 65.371094 C 10.480469 65.167969 10.164062 64.960938 10.105469 64.832031 L 10.246094 64.753906 L 10.105469 64.589844 C 10.125 64.601562 10.058594 64.921875 10.074219 64.953125 C 9.878906 64.863281 9.296875 64.601562 8.722656 64.320312 C 8.433594 64.171875 8.144531 64.023438 7.902344 63.902344 C 7.785156 63.835938 7.671875 63.777344 7.582031 63.730469 C 7.492188 63.683594 7.425781 63.648438 7.367188 63.636719 C 7.199219 63.605469 7.246094 63.792969 7.246094 63.792969 C 7.097656 63.652344 7.234375 63.644531 7.082031 63.574219 C 7.027344 63.5625 7.050781 63.65625 7.0625 63.683594 C 7.007812 63.640625 6.921875 63.644531 6.945312 63.582031 C 7.054688 63.585938 7.09375 63.445312 7.167969 63.378906 C 7.101562 63.339844 7.039062 63.316406 6.96875 63.277344 L 6.9375 63.359375 C 6.894531 63.34375 6.972656 63.085938 6.761719 63.003906 C 6.4375 62.855469 6.132812 62.59375 5.835938 62.394531 C 5.804688 62.441406 5.851562 62.507812 5.890625 62.59375 C 5.84375 62.5625 5.800781 62.511719 5.730469 62.507812 C 5.859375 62.488281 5.648438 62.355469 5.722656 62.375 C 5.683594 62.203125 5.566406 62.097656 5.445312 62.011719 C 5.335938 61.921875 5.210938 61.839844 5.167969 61.703125 C 5.238281 61.621094 5.707031 60.878906 6.222656 60.167969 C 6.738281 59.457031 7.28125 58.769531 7.363281 58.679688 C 7.328125 58.644531 7.28125 58.613281 7.253906 58.625 C 7.304688 58.585938 7.402344 58.648438 7.40625 58.695312 L 7.328125 58.800781 C 7.378906 58.914062 7.402344 58.769531 7.488281 58.851562 C 7.527344 58.816406 7.527344 58.78125 7.507812 58.738281 C 7.492188 58.695312 7.457031 58.65625 7.4375 58.613281 C 7.464844 58.636719 7.519531 58.644531 7.546875 58.667969 C 7.574219 58.691406 7.601562 58.714844 7.570312 58.761719 C 7.667969 58.789062 7.648438 58.660156 7.753906 58.699219 C 7.785156 58.773438 7.792969 58.90625 7.882812 58.917969 L 7.890625 58.898438 C 8.003906 58.917969 8.035156 58.988281 8.074219 59.078125 C 8.105469 59.148438 8.136719 59.222656 8.25 59.242188 L 8.25 59.207031 C 8.335938 59.203125 8.394531 59.332031 8.519531 59.347656 C 8.484375 59.34375 8.417969 59.390625 8.457031 59.441406 C 8.605469 59.464844 8.652344 59.566406 8.773438 59.5625 L 8.800781 59.707031 C 8.828125 59.730469 8.847656 59.738281 8.894531 59.769531 C 8.921875 59.789062 8.972656 59.820312 9.011719 59.835938 C 9.089844 59.890625 9.207031 59.960938 9.300781 60.023438 C 9.519531 60.167969 9.78125 60.328125 10.058594 60.484375 C 10.609375 60.792969 11.203125 61.085938 11.445312 61.203125 L 11.433594 61.171875 C 11.804688 61.355469 12.394531 61.597656 13.019531 61.839844 C 13.632812 62.089844 14.273438 62.324219 14.683594 62.558594 C 14.851562 62.503906 15.03125 62.597656 15.175781 62.617188 C 15.078125 62.625 15.09375 62.707031 15.15625 62.730469 C 15.597656 62.863281 15.160156 62.816406 15.589844 63.003906 C 15.824219 63.144531 16.453125 63.351562 17.078125 63.558594 C 17.097656 63.566406 17.121094 63.574219 17.132812 63.570312 C 17.109375 63.511719 17.082031 63.453125 17.058594 63.394531 C 16.96875 63.15625 16.890625 62.933594 16.824219 62.703125 C 16.792969 62.597656 16.742188 62.480469 16.710938 62.375 C 16.679688 62.265625 16.644531 62.144531 16.601562 62.042969 C 16.519531 61.820312 16.417969 61.585938 16.300781 61.328125 C 16.308594 61.375 16.304688 61.414062 16.308594 61.460938 C 16.214844 61.28125 16.105469 61 16 60.683594 C 15.945312 60.515625 15.890625 60.351562 15.828125 60.171875 C 15.765625 59.992188 15.695312 59.832031 15.621094 59.660156 C 15.703125 59.847656 15.835938 59.996094 15.707031 59.585938 C 15.542969 59.207031 15.441406 58.855469 15.339844 58.554688 C 15.242188 58.253906 15.152344 57.964844 15.03125 57.691406 C 15.019531 57.589844 15.011719 57.492188 15 57.390625 L 14.972656 57.09375 C 14.765625 56.386719 14.472656 55.171875 14.191406 53.671875 C 13.910156 52.167969 13.679688 50.386719 13.546875 48.597656 C 13.417969 46.808594 13.417969 45.007812 13.472656 43.484375 C 13.542969 41.949219 13.679688 40.695312 13.757812 39.972656 L 13.722656 40.089844 C 13.855469 38.976562 14.058594 37.59375 14.378906 36.085938 C 14.695312 34.566406 15.136719 32.902344 15.71875 31.28125 C 16 30.46875 16.335938 29.664062 16.6875 28.886719 C 17.035156 28.109375 17.414062 27.359375 17.816406 26.664062 C 18.210938 25.953125 18.617188 25.308594 19.027344 24.710938 C 19.441406 24.117188 19.847656 23.589844 20.230469 23.128906 C 20.285156 23.054688 20.332031 22.964844 20.386719 22.886719 C 20.4375 22.8125 20.5 22.714844 20.566406 22.632812 C 20.636719 22.554688 20.695312 22.457031 20.765625 22.375 C 20.792969 22.328125 20.832031 22.292969 20.863281 22.246094 C 20.894531 22.199219 20.929688 22.164062 20.976562 22.109375 C 21.125 21.941406 21.273438 21.769531 21.410156 21.605469 C 21.566406 21.453125 21.703125 21.289062 21.828125 21.144531 C 21.695312 21.308594 21.660156 21.394531 21.691406 21.378906 C 21.726562 21.382812 21.828125 21.300781 21.933594 21.1875 C 22.042969 21.085938 22.125 20.996094 22.210938 20.910156 C 22.296875 20.835938 22.371094 20.769531 22.429688 20.707031 C 22.550781 20.585938 22.640625 20.511719 22.703125 20.46875 C 22.832031 20.359375 22.84375 20.351562 22.878906 20.355469 C 22.910156 20.34375 22.929688 20.351562 23.054688 20.242188 C 23.121094 20.195312 23.210938 20.125 23.351562 20.011719 C 23.417969 19.964844 23.492188 19.894531 23.59375 19.816406 C 23.683594 19.742188 23.792969 19.675781 23.902344 19.578125 C 24.050781 19.476562 24.203125 19.359375 24.386719 19.226562 C 24.570312 19.09375 24.78125 18.949219 25.007812 18.796875 C 25.128906 18.710938 25.25 18.636719 25.375 18.566406 C 25.5 18.492188 25.628906 18.402344 25.769531 18.324219 C 25.902344 18.230469 26.039062 18.152344 26.191406 18.066406 C 26.332031 17.988281 26.484375 17.90625 26.628906 17.804688 C 27.859375 17.109375 29.324219 16.429688 30.816406 15.894531 Z M 23.035156 26.472656 C 23.019531 26.476562 23.027344 26.492188 23.011719 26.5 C 23.027344 26.492188 23.019531 26.476562 23.035156 26.472656 Z M 30.078125 56.832031 C 30.085938 56.8125 30.101562 56.804688 30.132812 56.792969 C 30.117188 56.800781 30.085938 56.8125 30.078125 56.832031 Z M 24.078125 57.992188 C 24.070312 57.976562 24.070312 57.976562 24.078125 57.992188 Z M 22.332031 60.191406 Z M 21.203125 70.8125 C 21.089844 70.828125 21.050781 70.777344 20.976562 70.722656 C 21.105469 70.703125 21.171875 70.738281 21.203125 70.8125 Z M 20.988281 70.71875 Z M 7.449219 58.644531 C 7.429688 58.632812 7.421875 58.621094 7.410156 58.589844 C 7.417969 58.605469 7.445312 58.628906 7.449219 58.644531 Z M 10.085938 64.980469 C 10.085938 64.980469 10.101562 64.972656 10.085938 64.980469 Z M 13.09375 66.558594 Z M 13.09375 66.558594 "/></g></g></g></g></svg>